<svg width="13" height="25" viewBox="0 0 13 25" fill="none" xmlns="http://www.w3.org/2000/svg">
<path d="M11.8503 12.3571L12.2039 12.0036C12.2977 12.0973 12.3503 12.2245 12.3503 12.3571C12.3503 12.4897 12.2977 12.6169 12.2039 12.7107L11.8503 12.3571ZM0.88044 24.0341C0.685177 24.2294 0.368595 24.2294 0.173332 24.0341C-0.0219297 23.8389 -0.0219297 23.5223 0.173332 23.327L0.88044 24.0341ZM0.526886 1.03369L0.880439 0.680138L12.2039 12.0036L11.8503 12.3571L11.4968 12.7107L0.173333 1.38725L0.526886 1.03369ZM11.8503 12.3571L12.2039 12.7107L0.88044 24.0341L0.526886 23.6806L0.173332 23.327L11.4968 12.0036L11.8503 12.3571Z" fill="white" fill-opacity="0.8"/>
</svg>
