<svg width="14" height="25" viewBox="0 0 14 25" fill="none" xmlns="http://www.w3.org/2000/svg">
<path d="M1.20337 12.3571L0.849816 12.0036C0.756048 12.0973 0.703369 12.2245 0.703369 12.3571C0.703369 12.4897 0.756047 12.6169 0.849816 12.7107L1.20337 12.3571ZM12.1733 24.0341C12.3685 24.2294 12.6851 24.2294 12.8804 24.0341C13.0756 23.8389 13.0756 23.5223 12.8804 23.327L12.1733 24.0341ZM12.5268 1.03369L12.1733 0.680138L0.849816 12.0036L1.20337 12.3571L1.55692 12.7107L12.8804 1.38725L12.5268 1.03369ZM1.20337 12.3571L0.849816 12.7107L12.1733 24.0341L12.5268 23.6806L12.8804 23.327L1.55692 12.0036L1.20337 12.3571Z" fill="white" fill-opacity="0.8"/>
</svg>
